<svg width="15" height="16" viewBox="0 0 15 16" fill="none" xmlns="http://www.w3.org/2000/svg">
<path d="M13.5 14.3095C13.5 15.1393 12.8325 15.8047 12 15.8047C11.1675 15.8047 10.5 15.1319 10.5 14.3095C10.5 13.4797 11.1675 12.8143 12 12.8143C12.8325 12.8143 13.5 13.4871 13.5 14.3095ZM4.5 12.8143C3.6675 12.8143 3 13.4797 3 14.3095C3 15.1319 3.6675 15.8047 4.5 15.8047C5.3325 15.8047 6 15.1393 6 14.3095C6 13.4797 5.3325 12.8143 4.5 12.8143ZM4.65 10.2949L4.6275 10.3846C4.6275 10.4893 4.71 10.5715 4.815 10.5715H13.5V12.0667H4.5C3.6675 12.0667 3 11.3939 3 10.5715C3 10.3098 3.0675 10.0631 3.18 9.85381L4.2 8.02219L1.5 2.34792H0V0.852722H2.4525L3.1575 2.34792H14.25C14.6625 2.34792 15 2.68434 15 3.09552C15 3.22261 14.9625 3.3497 14.91 3.46932L12.225 8.30628C11.97 8.76231 11.475 9.07631 10.9125 9.07631H5.325L4.65 10.2949ZM5.625 7.58111H6.75V6.08591H4.92L5.625 7.58111ZM7.5 6.08591V7.58111H9.75V6.08591H7.5ZM9.75 5.33831V3.84312H7.5V5.33831H9.75ZM12.0825 6.08591H10.5V7.58111H11.25L12.0825 6.08591ZM13.335 3.84312H10.5V5.33831H12.5025L13.335 3.84312ZM3.855 3.84312L4.56 5.33831H6.75V3.84312H3.855Z" fill="black"/>
</svg>
