<svg width="15" height="16" viewBox="0 0 15 16" fill="none" xmlns="http://www.w3.org/2000/svg">
<path d="M5.57143 0.852722C7.04906 0.852722 8.46618 1.43783 9.51102 2.47933C10.5559 3.52083 11.1429 4.93341 11.1429 6.40631C11.1429 7.78189 10.6371 9.0464 9.80571 10.0204L10.0371 10.2511H10.7143L15 14.5231L13.7143 15.8047L9.42857 11.5327V10.8577L9.19714 10.627C8.22 11.4558 6.95143 11.9599 5.57143 11.9599C4.09379 11.9599 2.67668 11.3748 1.63183 10.3333C0.586988 9.29179 0 7.87921 0 6.40631C0 4.93341 0.586988 3.52083 1.63183 2.47933C2.67668 1.43783 4.09379 0.852722 5.57143 0.852722ZM5.57143 2.56152C3.42857 2.56152 1.71429 4.27032 1.71429 6.40631C1.71429 8.54231 3.42857 10.2511 5.57143 10.2511C7.71429 10.2511 9.42857 8.54231 9.42857 6.40631C9.42857 4.27032 7.71429 2.56152 5.57143 2.56152Z" fill="black"/>
</svg>
